<svg width="46" height="63" viewBox="0 0 46 63" fill="none" xmlns="http://www.w3.org/2000/svg">
<path fill-rule="evenodd" clip-rule="evenodd" d="M22.8383 23.3841L25.2737 41.243L33.2762 27.7225L29.8806 42.5938L38.5085 34.2486L34.0157 45.2653L41.1942 39.8496C37.8524 49.0423 34.9413 54.1962 22.8383 58.3863C10.7353 54.1962 7.82422 49.0423 4.48242 39.8496L11.661 45.2653L7.16814 34.2486L15.796 42.5938L12.4005 27.7225L20.403 41.243L22.8383 23.3841Z" fill="#002145"/>
<path fill-rule="evenodd" clip-rule="evenodd" d="M10.1595 17.4005C6.49255 17.4005 4.30273 15.4165 4.30273 12.0837V4.10306H7.34239V11.9576C7.34239 13.8941 8.35049 14.9588 10.1835 14.9588C12.0625 14.9588 13.0591 13.9387 13.0591 12.0129V4.10306H16.1199V12.0303C16.1199 15.3438 13.8361 17.4005 10.1595 17.4005" fill="#002145"/>
<path fill-rule="evenodd" clip-rule="evenodd" d="M21.6436 9.35639H22.7485C24.2276 9.35639 25.0467 8.79494 25.0467 7.77773C25.0467 6.77797 24.3331 6.29021 22.8694 6.29021H21.6436V9.35639ZM21.6436 14.9962H22.9519C24.1346 14.9962 25.5398 14.6907 25.5398 13.2332C25.5398 11.7302 24.1115 11.4112 22.9087 11.4112H21.6436V14.9962ZM22.9519 17.1799H18.7065V4.10355H23.0152C26.1652 4.10355 27.9003 5.33991 27.9003 7.57603C27.9003 8.75324 27.2941 9.65894 26.1354 10.2146C27.6883 10.7683 28.4777 11.8058 28.4777 13.306C28.4777 15.8058 26.5172 17.1799 22.9519 17.1799V17.1799Z" fill="#002145"/>
<path fill-rule="evenodd" clip-rule="evenodd" d="M36.9933 17.4005C32.8065 17.4005 30.1035 14.7581 30.1035 10.6592C30.1035 6.60877 32.9063 3.88489 37.0758 3.88489C38.622 3.88489 39.9236 4.19325 41.0536 4.82743L41.1533 4.88271L40.6987 7.54549L40.4991 7.41071C39.3884 6.65725 38.3324 6.30913 37.1785 6.30913C34.6923 6.30913 33.2046 7.93046 33.2046 10.6427C33.2046 13.3065 34.7421 14.9588 37.2207 14.9588C38.3937 14.9588 39.5486 14.6029 40.7514 13.8718L40.95 13.7516L41.3778 16.2349L41.2828 16.2912C40.0483 17.0059 38.5251 17.4005 36.9933 17.4005" fill="#002145"/>
<path fill-rule="evenodd" clip-rule="evenodd" d="M0 0V34.1498C0 48.5023 7.72431 58.8936 22.8382 62.9682C37.9511 58.8936 45.6763 48.5023 45.6763 34.1498V0H0ZM22.8382 61.1559C8.55016 57.0638 1.73037 47.5268 1.73037 33.9307V1.74933H43.946V33.9307C43.946 47.5268 37.1262 57.0638 22.8382 61.1559V61.1559Z" fill="#002145"/>
<path fill-rule="evenodd" clip-rule="evenodd" d="M22.8389 21.8112C26.0234 21.8112 26.4541 23.1174 29.0189 23.1009C31.5742 23.1174 32.0126 21.8112 35.197 21.8112C38.3815 21.8112 38.8199 23.1174 41.3771 23.1009V20.1026C38.8199 20.12 38.3815 18.8304 35.197 18.8304C32.0126 18.8304 31.5742 20.12 29.0189 20.1026C26.4541 20.12 26.0234 18.8304 22.8389 18.8304C19.6544 18.8304 19.2238 20.12 16.6589 20.1026C14.1036 20.12 13.6653 18.8304 10.4808 18.8304C7.29631 18.8304 6.85701 20.12 4.30078 20.1026V23.1009C6.85701 23.1174 7.29631 21.8112 10.4808 21.8112C13.6653 21.8112 14.1036 23.1174 16.6589 23.1009C19.2238 23.1174 19.6544 21.8112 22.8389 21.8112" fill="#002145"/>
<path fill-rule="evenodd" clip-rule="evenodd" d="M24.8572 27.229C26.3938 27.6004 27.1247 28.3102 29.019 28.2986C31.5743 28.3141 32.0127 27.0079 35.1972 27.0079C38.3816 27.0079 38.82 28.3141 41.3772 28.2986V25.3003C38.82 25.3177 38.3816 24.027 35.1972 24.027C32.0127 24.027 31.5743 25.3177 29.019 25.3003C26.9597 25.3138 26.2758 24.4857 24.438 24.1579L24.8572 27.229Z" fill="#002145"/>
<path fill-rule="evenodd" clip-rule="evenodd" d="M16.6589 28.2983C18.5533 28.3099 19.2842 27.6011 20.8198 27.2297L21.238 24.1586C19.4022 24.4864 18.7173 25.3136 16.6589 25.3C14.1036 25.3174 13.6653 24.0277 10.4808 24.0277C7.29631 24.0277 6.85701 25.3174 4.30078 25.3V28.2983C6.85701 28.3148 7.29631 27.0086 10.4808 27.0086C13.6653 27.0086 14.1036 28.3148 16.6589 28.2983" fill="#002145"/>
<path fill-rule="evenodd" clip-rule="evenodd" d="M25.5953 32.6447C26.4643 32.9462 27.1319 33.3157 28.164 33.4466L29.9433 30.4396C29.6661 30.4774 29.362 30.4997 29.0196 30.4968C27.2566 30.5094 26.5027 29.9043 25.1704 29.5242L25.5953 32.6447Z" fill="#002145"/>
<path fill-rule="evenodd" clip-rule="evenodd" d="M33.7476 32.3125C34.1638 32.2466 34.6377 32.2049 35.1969 32.2049C38.3814 32.2049 38.8197 33.5111 41.3769 33.4955V30.4972C38.8197 30.5147 38.3814 29.224 35.1969 29.224C34.9274 29.224 34.6799 29.2347 34.4468 29.2512L33.7476 32.3125Z" fill="#002145"/>
<path fill-rule="evenodd" clip-rule="evenodd" d="M11.9292 32.3123L11.2299 29.251C10.9978 29.2345 10.7503 29.2248 10.4808 29.2248C7.29631 29.2248 6.85701 30.5145 4.30078 30.4971V33.4954C6.85701 33.5109 7.29631 32.2057 10.4808 32.2057C11.04 32.2057 11.5129 32.2464 11.9292 32.3123" fill="#002145"/>
<path fill-rule="evenodd" clip-rule="evenodd" d="M17.5132 33.4463C18.5452 33.3154 19.2128 32.9469 20.0818 32.6453L20.5068 29.5239C19.1754 29.904 18.4205 30.5091 16.6585 30.4965C16.3151 30.4994 16.012 30.4771 15.7329 30.4393L17.5132 33.4463Z" fill="#002145"/>
</svg>
